<svg xmlns="http://www.w3.org/2000/svg" xmlns:xlink="http://www.w3.org/1999/xlink" width="1166pt" height="1108pt" viewBox="0.00 0.00 1166.00 1108.00">
<g id="graph0" class="graph" transform="scale(1 1) rotate(0) translate(4 1104)">
<title>G</title>
<polygon fill="white" stroke="none" points="-4,4 -4,-1104 1161.5,-1104 1161.5,4 -4,4"/>
<!-- file_00_common_hpo_paramset_py -->
<g id="node1" class="node">
<title>file_00_common_hpo_paramset_py</title>
<polygon fill="none" stroke="black" points="256.26,-1100 38.08,-1100 38.08,-1064 256.26,-1064 256.26,-1100"/>
<text xml:space="preserve" text-anchor="middle" x="147.17" y="-1077.8" font-family="Times,serif" font-size="14.00">file_00_common_hpo_paramset_py</text>
</g>
<!-- hyperparam_configs_5000_parquet -->
<g id="node2" class="node">
<title>hyperparam_configs_5000_parquet</title>
<polygon fill="none" stroke="black" points="254.69,-1028 39.65,-1028 39.65,-992 254.69,-992 254.69,-1028"/>
<text xml:space="preserve" text-anchor="middle" x="147.17" y="-1005.8" font-family="Times,serif" font-size="14.00">hyperparam_configs_5000_parquet</text>
</g>
<!-- file_00_common_hpo_paramset_py&#45;&gt;hyperparam_configs_5000_parquet -->
<g id="edge1" class="edge">
<title>file_00_common_hpo_paramset_py-&gt;hyperparam_configs_5000_parquet</title>
<path fill="none" stroke="black" d="M147.17,-1063.7C147.17,-1056.41 147.17,-1047.73 147.17,-1039.54"/>
<polygon fill="black" stroke="black" points="150.67,-1039.62 147.17,-1029.62 143.67,-1039.62 150.67,-1039.62"/>
</g>
<!-- file_01_create_yaml_for_data_scenario_tasks_py -->
<g id="node4" class="node">
<title>file_01_create_yaml_for_data_scenario_tasks_py</title>
<polygon fill="none" stroke="black" points="294.34,-956 0,-956 0,-920 294.34,-920 294.34,-956"/>
<text xml:space="preserve" text-anchor="middle" x="147.17" y="-933.8" font-family="Times,serif" font-size="14.00">file_01_create_yaml_for_data_scenario_tasks_py</text>
</g>
<!-- hyperparam_configs_5000_parquet&#45;&gt;file_01_create_yaml_for_data_scenario_tasks_py -->
<g id="edge4" class="edge">
<title>hyperparam_configs_5000_parquet-&gt;file_01_create_yaml_for_data_scenario_tasks_py</title>
<path fill="none" stroke="black" d="M147.17,-991.7C147.17,-984.41 147.17,-975.73 147.17,-967.54"/>
<polygon fill="black" stroke="black" points="150.67,-967.62 147.17,-957.62 143.67,-967.62 150.67,-967.62"/>
</g>
<!-- hp_combinations_3000 -->
<g id="node3" class="node">
<title>hp_combinations_3000</title>
<polygon fill="none" stroke="black" points="520.89,-1100 373.45,-1100 373.45,-1064 520.89,-1064 520.89,-1100"/>
<text xml:space="preserve" text-anchor="middle" x="447.17" y="-1077.8" font-family="Times,serif" font-size="14.00">hp_combinations_3000</text>
</g>
<!-- hp_combinations_3000&#45;&gt;file_01_create_yaml_for_data_scenario_tasks_py -->
<g id="edge2" class="edge">
<title>hp_combinations_3000-&gt;file_01_create_yaml_for_data_scenario_tasks_py</title>
<path fill="none" stroke="black" d="M412.22,-1063.65C375.5,-1045.5 315.98,-1016.33 264.17,-992 242.07,-981.62 217.47,-970.42 196.55,-961.01"/>
<polygon fill="black" stroke="black" points="198.23,-957.93 187.67,-957.02 195.36,-964.31 198.23,-957.93"/>
</g>
<!-- varix -->
<g id="node6" class="node">
<title>varix</title>
<polygon fill="none" stroke="black" points="474.17,-1028 420.17,-1028 420.17,-992 474.17,-992 474.17,-1028"/>
<text xml:space="preserve" text-anchor="middle" x="447.17" y="-1005.8" font-family="Times,serif" font-size="14.00">varix</text>
</g>
<!-- hp_combinations_3000&#45;&gt;varix -->
<g id="edge5" class="edge">
<title>hp_combinations_3000-&gt;varix</title>
<path fill="none" stroke="black" d="M447.17,-1063.7C447.17,-1056.41 447.17,-1047.73 447.17,-1039.54"/>
<polygon fill="black" stroke="black" points="450.67,-1039.62 447.17,-1029.62 443.67,-1039.62 450.67,-1039.62"/>
</g>
<!-- vanillix -->
<g id="node7" class="node">
<title>vanillix</title>
<polygon fill="none" stroke="black" points="550.56,-1028 491.78,-1028 491.78,-992 550.56,-992 550.56,-1028"/>
<text xml:space="preserve" text-anchor="middle" x="521.17" y="-1005.8" font-family="Times,serif" font-size="14.00">vanillix</text>
</g>
<!-- hp_combinations_3000&#45;&gt;vanillix -->
<g id="edge6" class="edge">
<title>hp_combinations_3000-&gt;vanillix</title>
<path fill="none" stroke="black" d="M465.46,-1063.7C474.27,-1055.37 484.99,-1045.22 494.67,-1036.07"/>
<polygon fill="black" stroke="black" points="496.87,-1038.8 501.73,-1029.39 492.06,-1033.72 496.87,-1038.8"/>
</g>
<!-- yaml_30000_for_autoencodix -->
<g id="node5" class="node">
<title>yaml_30000_for_autoencodix</title>
<polygon fill="none" stroke="black" points="571.54,-884 386.8,-884 386.8,-848 571.54,-848 571.54,-884"/>
<text xml:space="preserve" text-anchor="middle" x="479.17" y="-861.8" font-family="Times,serif" font-size="14.00">yaml_30000_for_autoencodix</text>
</g>
<!-- file_01_create_yaml_for_data_scenario_tasks_py&#45;&gt;yaml_30000_for_autoencodix -->
<g id="edge3" class="edge">
<title>file_01_create_yaml_for_data_scenario_tasks_py-&gt;yaml_30000_for_autoencodix</title>
<path fill="none" stroke="black" d="M230.09,-919.52C277.22,-909.58 336.39,-897.1 385.23,-886.81"/>
<polygon fill="black" stroke="black" points="385.9,-890.24 394.96,-884.75 384.45,-883.39 385.9,-890.24"/>
</g>
<!-- TUD_Cluster -->
<g id="node14" class="node">
<title>TUD_Cluster</title>
<polygon fill="none" stroke="black" points="610.28,-812 518.06,-812 518.06,-776 610.28,-776 610.28,-812"/>
<text xml:space="preserve" text-anchor="middle" x="564.17" y="-789.8" font-family="Times,serif" font-size="14.00">TUD_Cluster</text>
</g>
<!-- yaml_30000_for_autoencodix&#45;&gt;TUD_Cluster -->
<g id="edge23" class="edge">
<title>yaml_30000_for_autoencodix-&gt;TUD_Cluster</title>
<path fill="none" stroke="black" d="M500.18,-847.7C510.5,-839.2 523.11,-828.81 534.4,-819.51"/>
<polygon fill="black" stroke="black" points="536.44,-822.37 541.94,-813.31 531.99,-816.96 536.44,-822.37"/>
</g>
<!-- tcga_rna -->
<g id="node8" class="node">
<title>tcga_rna</title>
<polygon fill="none" stroke="black" points="730.27,-956 666.07,-956 666.07,-920 730.27,-920 730.27,-956"/>
<text xml:space="preserve" text-anchor="middle" x="698.17" y="-933.8" font-family="Times,serif" font-size="14.00">tcga_rna</text>
</g>
<!-- varix&#45;&gt;tcga_rna -->
<g id="edge7" class="edge">
<title>varix-&gt;tcga_rna</title>
<path fill="none" stroke="black" d="M474.41,-995.32C477.33,-994.1 480.29,-992.96 483.17,-992 554.7,-968.09 579.47,-978.2 654.73,-956.41"/>
<polygon fill="black" stroke="black" points="655.68,-959.78 664.25,-953.55 653.67,-953.07 655.68,-959.78"/>
</g>
<!-- tcga_meth -->
<g id="node9" class="node">
<title>tcga_meth</title>
<polygon fill="none" stroke="black" points="386.32,-956 312.01,-956 312.01,-920 386.32,-920 386.32,-956"/>
<text xml:space="preserve" text-anchor="middle" x="349.17" y="-933.8" font-family="Times,serif" font-size="14.00">tcga_meth</text>
</g>
<!-- varix&#45;&gt;tcga_meth -->
<g id="edge8" class="edge">
<title>varix-&gt;tcga_meth</title>
<path fill="none" stroke="black" d="M422.69,-991.52C410.56,-982.85 395.72,-972.25 382.56,-962.85"/>
<polygon fill="black" stroke="black" points="384.74,-960.1 374.57,-957.14 380.67,-965.8 384.74,-960.1"/>
</g>
<!-- tcga_dna -->
<g id="node10" class="node">
<title>tcga_dna</title>
<polygon fill="none" stroke="black" points="470.44,-956 403.9,-956 403.9,-920 470.44,-920 470.44,-956"/>
<text xml:space="preserve" text-anchor="middle" x="437.17" y="-933.8" font-family="Times,serif" font-size="14.00">tcga_dna</text>
</g>
<!-- varix&#45;&gt;tcga_dna -->
<g id="edge9" class="edge">
<title>varix-&gt;tcga_dna</title>
<path fill="none" stroke="black" d="M444.7,-991.7C443.64,-984.32 442.39,-975.52 441.21,-967.25"/>
<polygon fill="black" stroke="black" points="444.71,-967.01 439.83,-957.6 437.78,-968 444.71,-967.01"/>
</g>
<!-- schc_rna -->
<g id="node11" class="node">
<title>schc_rna</title>
<polygon fill="none" stroke="black" points="554.05,-956 488.29,-956 488.29,-920 554.05,-920 554.05,-956"/>
<text xml:space="preserve" text-anchor="middle" x="521.17" y="-933.8" font-family="Times,serif" font-size="14.00">schc_rna</text>
</g>
<!-- varix&#45;&gt;schc_rna -->
<g id="edge10" class="edge">
<title>varix-&gt;schc_rna</title>
<path fill="none" stroke="black" d="M465.46,-991.7C474.27,-983.37 484.99,-973.22 494.67,-964.07"/>
<polygon fill="black" stroke="black" points="496.87,-966.8 501.73,-957.39 492.06,-961.72 496.87,-966.8"/>
</g>
<!-- schc_meth -->
<g id="node12" class="node">
<title>schc_meth</title>
<polygon fill="none" stroke="black" points="648.1,-956 572.23,-956 572.23,-920 648.1,-920 648.1,-956"/>
<text xml:space="preserve" text-anchor="middle" x="610.17" y="-933.8" font-family="Times,serif" font-size="14.00">schc_meth</text>
</g>
<!-- varix&#45;&gt;schc_meth -->
<g id="edge11" class="edge">
<title>varix-&gt;schc_meth</title>
<path fill="none" stroke="black" d="M474.63,-995.88C477.5,-994.55 480.39,-993.24 483.17,-992 508.82,-980.6 537.68,-968.5 561.4,-958.74"/>
<polygon fill="black" stroke="black" points="562.58,-962.04 570.51,-955.01 559.93,-955.56 562.58,-962.04"/>
</g>
<!-- vanillix&#45;&gt;tcga_rna -->
<g id="edge12" class="edge">
<title>vanillix-&gt;tcga_rna</title>
<path fill="none" stroke="black" d="M550.96,-997.6C576.4,-987.82 614.23,-973.17 655.43,-956.66"/>
<polygon fill="black" stroke="black" points="656.59,-959.97 664.56,-952.99 653.98,-953.47 656.59,-959.97"/>
</g>
<!-- vanillix&#45;&gt;tcga_meth -->
<g id="edge13" class="edge">
<title>vanillix-&gt;tcga_meth</title>
<path fill="none" stroke="black" d="M491.35,-995.51C488.59,-994.31 485.83,-993.12 483.17,-992 454.83,-980.06 422.8,-967.37 397.17,-957.4"/>
<polygon fill="black" stroke="black" points="398.6,-954.2 388.02,-953.85 396.07,-960.72 398.6,-954.2"/>
</g>
<!-- vanillix&#45;&gt;tcga_dna -->
<g id="edge14" class="edge">
<title>vanillix-&gt;tcga_dna</title>
<path fill="none" stroke="black" d="M500.41,-991.7C490.21,-983.2 477.74,-972.81 466.59,-963.51"/>
<polygon fill="black" stroke="black" points="469.07,-961.03 459.15,-957.32 464.59,-966.41 469.07,-961.03"/>
</g>
<!-- vanillix&#45;&gt;schc_rna -->
<g id="edge15" class="edge">
<title>vanillix-&gt;schc_rna</title>
<path fill="none" stroke="black" d="M521.17,-991.7C521.17,-984.41 521.17,-975.73 521.17,-967.54"/>
<polygon fill="black" stroke="black" points="524.67,-967.62 521.17,-957.62 517.67,-967.62 524.67,-967.62"/>
</g>
<!-- vanillix&#45;&gt;schc_meth -->
<g id="edge16" class="edge">
<title>vanillix-&gt;schc_meth</title>
<path fill="none" stroke="black" d="M543.17,-991.7C554.08,-983.11 567.44,-972.61 579.35,-963.24"/>
<polygon fill="black" stroke="black" points="581.23,-966.22 586.92,-957.28 576.9,-960.71 581.23,-966.22"/>
</g>
<!-- tcga_rna&#45;&gt;yaml_30000_for_autoencodix -->
<g id="edge17" class="edge">
<title>tcga_rna-&gt;yaml_30000_for_autoencodix</title>
<path fill="none" stroke="black" d="M665.61,-923.14C662.77,-922.04 659.93,-920.98 657.17,-920 623.87,-908.18 586.47,-896.76 554.57,-887.58"/>
<polygon fill="black" stroke="black" points="555.57,-884.22 544.99,-884.84 553.64,-890.95 555.57,-884.22"/>
</g>
<!-- tcga_meth&#45;&gt;yaml_30000_for_autoencodix -->
<g id="edge18" class="edge">
<title>tcga_meth-&gt;yaml_30000_for_autoencodix</title>
<path fill="none" stroke="black" d="M381.64,-919.52C398.44,-910.47 419.15,-899.32 437.15,-889.62"/>
<polygon fill="black" stroke="black" points="438.64,-892.8 445.78,-884.98 435.32,-886.64 438.64,-892.8"/>
</g>
<!-- tcga_dna&#45;&gt;yaml_30000_for_autoencodix -->
<g id="edge19" class="edge">
<title>tcga_dna-&gt;yaml_30000_for_autoencodix</title>
<path fill="none" stroke="black" d="M447.55,-919.7C452.23,-911.9 457.86,-902.51 463.07,-893.83"/>
<polygon fill="black" stroke="black" points="465.98,-895.78 468.13,-885.4 459.98,-892.18 465.98,-895.78"/>
</g>
<!-- schc_rna&#45;&gt;yaml_30000_for_autoencodix -->
<g id="edge20" class="edge">
<title>schc_rna-&gt;yaml_30000_for_autoencodix</title>
<path fill="none" stroke="black" d="M510.79,-919.7C506.11,-911.9 500.47,-902.51 495.27,-893.83"/>
<polygon fill="black" stroke="black" points="498.36,-892.18 490.21,-885.4 492.35,-895.78 498.36,-892.18"/>
</g>
<!-- schc_meth&#45;&gt;yaml_30000_for_autoencodix -->
<g id="edge21" class="edge">
<title>schc_meth-&gt;yaml_30000_for_autoencodix</title>
<path fill="none" stroke="black" d="M577.45,-919.52C560.52,-910.47 539.65,-899.32 521.51,-889.62"/>
<polygon fill="black" stroke="black" points="523.28,-886.6 512.81,-884.97 519.98,-892.77 523.28,-886.6"/>
</g>
<!-- autoencodix_venv -->
<g id="node13" class="node">
<title>autoencodix_venv</title>
<polygon fill="none" stroke="black" points="708.49,-884 589.85,-884 589.85,-848 708.49,-848 708.49,-884"/>
<text xml:space="preserve" text-anchor="middle" x="649.17" y="-861.8" font-family="Times,serif" font-size="14.00">autoencodix_venv</text>
</g>
<!-- autoencodix_venv&#45;&gt;TUD_Cluster -->
<g id="edge22" class="edge">
<title>autoencodix_venv-&gt;TUD_Cluster</title>
<path fill="none" stroke="black" d="M628.16,-847.7C617.84,-839.2 605.23,-828.81 593.94,-819.51"/>
<polygon fill="black" stroke="black" points="596.35,-816.96 586.4,-813.31 591.9,-822.37 596.35,-816.96"/>
</g>
<!-- results_30000 -->
<g id="node15" class="node">
<title>results_30000</title>
<polygon fill="none" stroke="black" points="611.45,-740 516.89,-740 516.89,-704 611.45,-704 611.45,-740"/>
<text xml:space="preserve" text-anchor="middle" x="564.17" y="-717.8" font-family="Times,serif" font-size="14.00">results_30000</text>
</g>
<!-- TUD_Cluster&#45;&gt;results_30000 -->
<g id="edge24" class="edge">
<title>TUD_Cluster-&gt;results_30000</title>
<path fill="none" stroke="black" d="M564.17,-775.7C564.17,-768.41 564.17,-759.73 564.17,-751.54"/>
<polygon fill="black" stroke="black" points="567.67,-751.62 564.17,-741.62 560.67,-751.62 567.67,-751.62"/>
</g>
<!-- zip -->
<g id="node16" class="node">
<title>zip</title>
<polygon fill="none" stroke="black" points="378.17,-668 324.17,-668 324.17,-632 378.17,-632 378.17,-668"/>
<text xml:space="preserve" text-anchor="middle" x="351.17" y="-645.8" font-family="Times,serif" font-size="14.00">zip</text>
</g>
<!-- results_30000&#45;&gt;zip -->
<g id="edge25" class="edge">
<title>results_30000-&gt;zip</title>
<path fill="none" stroke="black" d="M516.57,-708.84C483.02,-699.8 436.98,-686.46 389.07,-668.46"/>
<polygon fill="black" stroke="black" points="390.51,-665.26 379.92,-664.97 388.01,-671.8 390.51,-665.26"/>
</g>
<!-- ml_task_performance_txt -->
<g id="node18" class="node">
<title>ml_task_performance_txt</title>
<polygon fill="none" stroke="black" points="644.09,-668 484.25,-668 484.25,-632 644.09,-632 644.09,-668"/>
<text xml:space="preserve" text-anchor="middle" x="564.17" y="-645.8" font-family="Times,serif" font-size="14.00">ml_task_performance_txt</text>
</g>
<!-- results_30000&#45;&gt;ml_task_performance_txt -->
<g id="edge27" class="edge">
<title>results_30000-&gt;ml_task_performance_txt</title>
<path fill="none" stroke="black" d="M564.17,-703.7C564.17,-696.41 564.17,-687.73 564.17,-679.54"/>
<polygon fill="black" stroke="black" points="567.67,-679.62 564.17,-669.62 560.67,-679.62 567.67,-679.62"/>
</g>
<!-- out_logfile -->
<g id="node19" class="node">
<title>out_logfile</title>
<polygon fill="none" stroke="black" points="739.89,-668 662.45,-668 662.45,-632 739.89,-632 739.89,-668"/>
<text xml:space="preserve" text-anchor="middle" x="701.17" y="-645.8" font-family="Times,serif" font-size="14.00">out_logfile</text>
</g>
<!-- results_30000&#45;&gt;out_logfile -->
<g id="edge28" class="edge">
<title>results_30000-&gt;out_logfile</title>
<path fill="none" stroke="black" d="M598.39,-703.52C616.17,-694.43 638.12,-683.22 657.16,-673.49"/>
<polygon fill="black" stroke="black" points="658.73,-676.62 666.04,-668.95 655.54,-670.38 658.73,-676.62"/>
</g>
<!-- losses_parquet -->
<g id="node20" class="node">
<title>losses_parquet</title>
<polygon fill="none" stroke="black" points="856.38,-668 757.96,-668 757.96,-632 856.38,-632 856.38,-668"/>
<text xml:space="preserve" text-anchor="middle" x="807.17" y="-645.8" font-family="Times,serif" font-size="14.00">losses_parquet</text>
</g>
<!-- results_30000&#45;&gt;losses_parquet -->
<g id="edge29" class="edge">
<title>results_30000-&gt;losses_parquet</title>
<path fill="none" stroke="black" d="M611.72,-707.46C646.62,-697.51 695.46,-683.54 746.57,-668.75"/>
<polygon fill="black" stroke="black" points="747.42,-672.14 756.05,-666 745.47,-665.42 747.42,-672.14"/>
</g>
<!-- run_yaml -->
<g id="node21" class="node">
<title>run_yaml</title>
<polygon fill="none" stroke="black" points="466,-668 396.34,-668 396.34,-632 466,-632 466,-668"/>
<text xml:space="preserve" text-anchor="middle" x="431.17" y="-645.8" font-family="Times,serif" font-size="14.00">run_yaml</text>
</g>
<!-- results_30000&#45;&gt;run_yaml -->
<g id="edge30" class="edge">
<title>results_30000-&gt;run_yaml</title>
<path fill="none" stroke="black" d="M530.95,-703.52C513.68,-694.43 492.38,-683.22 473.9,-673.49"/>
<polygon fill="black" stroke="black" points="475.78,-670.53 465.3,-668.97 472.52,-676.72 475.78,-670.53"/>
</g>
<!-- Scads_ai_nextcloud_AutoencodixTuning -->
<g id="node17" class="node">
<title>Scads_ai_nextcloud_AutoencodixTuning</title>
<polygon fill="none" stroke="black" points="475.04,-596 227.3,-596 227.3,-560 475.04,-560 475.04,-596"/>
<text xml:space="preserve" text-anchor="middle" x="351.17" y="-573.8" font-family="Times,serif" font-size="14.00">Scads_ai_nextcloud_AutoencodixTuning</text>
</g>
<!-- zip&#45;&gt;Scads_ai_nextcloud_AutoencodixTuning -->
<g id="edge26" class="edge">
<title>zip-&gt;Scads_ai_nextcloud_AutoencodixTuning</title>
<path fill="none" stroke="black" d="M351.17,-631.7C351.17,-624.41 351.17,-615.73 351.17,-607.54"/>
<polygon fill="black" stroke="black" points="354.67,-607.62 351.17,-597.62 347.67,-607.62 354.67,-607.62"/>
</g>
<!-- f02_gather_results_py -->
<g id="node22" class="node">
<title>f02_gather_results_py</title>
<polygon fill="none" stroke="black" points="702.77,-596 561.57,-596 561.57,-560 702.77,-560 702.77,-596"/>
<text xml:space="preserve" text-anchor="middle" x="632.17" y="-573.8" font-family="Times,serif" font-size="14.00">f02_gather_results_py</text>
</g>
<!-- ml_task_performance_txt&#45;&gt;f02_gather_results_py -->
<g id="edge31" class="edge">
<title>ml_task_performance_txt-&gt;f02_gather_results_py</title>
<path fill="none" stroke="black" d="M580.98,-631.7C589.05,-623.39 598.87,-613.28 607.75,-604.14"/>
<polygon fill="black" stroke="black" points="610.04,-606.8 614.5,-597.19 605.02,-601.92 610.04,-606.8"/>
</g>
<!-- out_logfile&#45;&gt;f02_gather_results_py -->
<g id="edge32" class="edge">
<title>out_logfile-&gt;f02_gather_results_py</title>
<path fill="none" stroke="black" d="M684.11,-631.7C675.92,-623.39 665.96,-613.28 656.95,-604.14"/>
<polygon fill="black" stroke="black" points="659.6,-601.85 650.09,-597.18 654.62,-606.76 659.6,-601.85"/>
</g>
<!-- losses_parquet&#45;&gt;f02_gather_results_py -->
<g id="edge33" class="edge">
<title>losses_parquet-&gt;f02_gather_results_py</title>
<path fill="none" stroke="black" d="M763.46,-631.52C739.99,-622.13 710.85,-610.47 685.99,-600.53"/>
<polygon fill="black" stroke="black" points="687.61,-597.41 677.03,-596.94 685.01,-603.91 687.61,-597.41"/>
</g>
<!-- run_yaml&#45;&gt;f02_gather_results_py -->
<g id="edge34" class="edge">
<title>run_yaml-&gt;f02_gather_results_py</title>
<path fill="none" stroke="black" d="M466.18,-635.32C469.22,-634.18 472.24,-633.06 475.17,-632 505.51,-621.02 539.41,-609.49 567.92,-599.99"/>
<polygon fill="black" stroke="black" points="568.74,-603.41 577.12,-596.94 566.53,-596.77 568.74,-603.41"/>
</g>
<!-- (vanillix_results) -->
<g id="node23" class="node">
<title>(vanillix_results)</title>
<polygon fill="none" stroke="black" points="603.99,-524 492.35,-524 492.35,-488 603.99,-488 603.99,-524"/>
<text xml:space="preserve" text-anchor="middle" x="548.17" y="-501.8" font-family="Times,serif" font-size="14.00">(vanillix_results)</text>
</g>
<!-- f02_gather_results_py&#45;&gt;(vanillix_results) -->
<g id="edge35" class="edge">
<title>f02_gather_results_py-&gt;(vanillix_results)</title>
<path fill="none" stroke="black" d="M611.41,-559.7C601.21,-551.2 588.74,-540.81 577.59,-531.51"/>
<polygon fill="black" stroke="black" points="580.07,-529.03 570.15,-525.32 575.59,-534.41 580.07,-529.03"/>
</g>
<!-- (varix_results) -->
<g id="node24" class="node">
<title>(varix_results)</title>
<polygon fill="none" stroke="black" points="763.99,-524 666.35,-524 666.35,-488 763.99,-488 763.99,-524"/>
<text xml:space="preserve" text-anchor="middle" x="715.17" y="-501.8" font-family="Times,serif" font-size="14.00">(varix_results)</text>
</g>
<!-- f02_gather_results_py&#45;&gt;(varix_results) -->
<g id="edge36" class="edge">
<title>f02_gather_results_py-&gt;(varix_results)</title>
<path fill="none" stroke="black" d="M652.69,-559.7C662.76,-551.2 675.08,-540.81 686.1,-531.51"/>
<polygon fill="black" stroke="black" points="688.06,-534.45 693.44,-525.32 683.54,-529.09 688.06,-534.45"/>
</g>
<!-- real_ae_results_vanillix_schc_METH_parquet
 &#160;&#160;&#160;real_ae_results_vanillix_schc_RNA_parquet
 &#160;&#160;&#160;real_ae_results_vanillix_tcga_DNA_parquet
 &#160;&#160;&#160;real_ae_results_vanillix_tcga_METH_parquet
 &#160;&#160;&#160;real_ae_results_vanillix_tcga_RNA_parquet -->
<g id="node25" class="node">
<title>real_ae_results_vanillix_schc_METH_parquet
    real_ae_results_vanillix_schc_RNA_parquet
    real_ae_results_vanillix_tcga_DNA_parquet
    real_ae_results_vanillix_tcga_METH_parquet
    real_ae_results_vanillix_tcga_RNA_parquet</title>
<polygon fill="none" stroke="black" points="604.01,-452 314.32,-452 314.32,-360 604.01,-360 604.01,-452"/>
<text xml:space="preserve" text-anchor="middle" x="459.17" y="-435.4" font-family="Times,serif" font-size="14.00">real_ae_results_vanillix_schc_METH_parquet</text>
<text xml:space="preserve" text-anchor="middle" x="459.17" y="-418.6" font-family="Times,serif" font-size="14.00">    real_ae_results_vanillix_schc_RNA_parquet</text>
<text xml:space="preserve" text-anchor="middle" x="459.17" y="-401.8" font-family="Times,serif" font-size="14.00">    real_ae_results_vanillix_tcga_DNA_parquet</text>
<text xml:space="preserve" text-anchor="middle" x="459.17" y="-385" font-family="Times,serif" font-size="14.00">    real_ae_results_vanillix_tcga_METH_parquet</text>
<text xml:space="preserve" text-anchor="middle" x="459.17" y="-368.2" font-family="Times,serif" font-size="14.00">    real_ae_results_vanillix_tcga_RNA_parquet</text>
</g>
<!-- (vanillix_results)&#45;&gt;real_ae_results_vanillix_schc_METH_parquet
 &#160;&#160;&#160;real_ae_results_vanillix_schc_RNA_parquet
 &#160;&#160;&#160;real_ae_results_vanillix_tcga_DNA_parquet
 &#160;&#160;&#160;real_ae_results_vanillix_tcga_METH_parquet
 &#160;&#160;&#160;real_ae_results_vanillix_tcga_RNA_parquet -->
<g id="edge37" class="edge">
<title>(vanillix_results)-&gt;real_ae_results_vanillix_schc_METH_parquet
    real_ae_results_vanillix_schc_RNA_parquet
    real_ae_results_vanillix_tcga_DNA_parquet
    real_ae_results_vanillix_tcga_METH_parquet
    real_ae_results_vanillix_tcga_RNA_parquet</title>
<path fill="none" stroke="black" d="M532.67,-487.93C525.59,-480.13 516.77,-470.42 507.73,-460.47"/>
<polygon fill="black" stroke="black" points="510.44,-458.25 501.13,-453.2 505.26,-462.96 510.44,-458.25"/>
</g>
<!-- real_ae_results_varix_schc_METH_parquet
 &#160;&#160;&#160;real_ae_results_varix_schc_RNA_parquet
 &#160;&#160;&#160;real_ae_results_varix_tcga_DNA_parquet
 &#160;&#160;&#160;real_ae_results_varix_tcga_METH_parquet
 &#160;&#160;&#160;real_ae_results_varix_tcga_RNA_parquet -->
<g id="node28" class="node">
<title>real_ae_results_varix_schc_METH_parquet
    real_ae_results_varix_schc_RNA_parquet
    real_ae_results_varix_tcga_DNA_parquet
    real_ae_results_varix_tcga_METH_parquet
    real_ae_results_varix_tcga_RNA_parquet</title>
<polygon fill="none" stroke="black" points="963.01,-452 687.33,-452 687.33,-360 963.01,-360 963.01,-452"/>
<text xml:space="preserve" text-anchor="middle" x="825.17" y="-435.4" font-family="Times,serif" font-size="14.00">real_ae_results_varix_schc_METH_parquet</text>
<text xml:space="preserve" text-anchor="middle" x="825.17" y="-418.6" font-family="Times,serif" font-size="14.00">    real_ae_results_varix_schc_RNA_parquet</text>
<text xml:space="preserve" text-anchor="middle" x="825.17" y="-401.8" font-family="Times,serif" font-size="14.00">    real_ae_results_varix_tcga_DNA_parquet</text>
<text xml:space="preserve" text-anchor="middle" x="825.17" y="-385" font-family="Times,serif" font-size="14.00">    real_ae_results_varix_tcga_METH_parquet</text>
<text xml:space="preserve" text-anchor="middle" x="825.17" y="-368.2" font-family="Times,serif" font-size="14.00">    real_ae_results_varix_tcga_RNA_parquet</text>
</g>
<!-- (varix_results)&#45;&gt;real_ae_results_varix_schc_METH_parquet
 &#160;&#160;&#160;real_ae_results_varix_schc_RNA_parquet
 &#160;&#160;&#160;real_ae_results_varix_tcga_DNA_parquet
 &#160;&#160;&#160;real_ae_results_varix_tcga_METH_parquet
 &#160;&#160;&#160;real_ae_results_varix_tcga_RNA_parquet -->
<g id="edge40" class="edge">
<title>(varix_results)-&gt;real_ae_results_varix_schc_METH_parquet
    real_ae_results_varix_schc_RNA_parquet
    real_ae_results_varix_tcga_DNA_parquet
    real_ae_results_varix_tcga_METH_parquet
    real_ae_results_varix_tcga_RNA_parquet</title>
<path fill="none" stroke="black" d="M734.58,-487.71C743.52,-479.75 754.64,-469.83 766.01,-459.7"/>
<polygon fill="black" stroke="black" points="768.03,-462.59 773.17,-453.32 763.38,-457.36 768.03,-462.59"/>
</g>
<!-- syne_tune_syne_tune_blackbox_repository_conversion_scripts_scripts_ae_vanillix_import_py -->
<g id="node26" class="node">
<title>syne_tune_syne_tune_blackbox_repository_conversion_scripts_scripts_ae_vanillix_import_py</title>
<polygon fill="none" stroke="black" points="604.51,-324 55.83,-324 55.83,-288 604.51,-288 604.51,-324"/>
<text xml:space="preserve" text-anchor="middle" x="330.17" y="-301.8" font-family="Times,serif" font-size="14.00">syne_tune_syne_tune_blackbox_repository_conversion_scripts_scripts_ae_vanillix_import_py</text>
</g>
<!-- real_ae_results_vanillix_schc_METH_parquet
 &#160;&#160;&#160;real_ae_results_vanillix_schc_RNA_parquet
 &#160;&#160;&#160;real_ae_results_vanillix_tcga_DNA_parquet
 &#160;&#160;&#160;real_ae_results_vanillix_tcga_METH_parquet
 &#160;&#160;&#160;real_ae_results_vanillix_tcga_RNA_parquet&#45;&gt;syne_tune_syne_tune_blackbox_repository_conversion_scripts_scripts_ae_vanillix_import_py -->
<g id="edge38" class="edge">
<title>real_ae_results_vanillix_schc_METH_parquet
    real_ae_results_vanillix_schc_RNA_parquet
    real_ae_results_vanillix_tcga_DNA_parquet
    real_ae_results_vanillix_tcga_METH_parquet
    real_ae_results_vanillix_tcga_RNA_parquet-&gt;syne_tune_syne_tune_blackbox_repository_conversion_scripts_scripts_ae_vanillix_import_py</title>
<path fill="none" stroke="black" d="M399.58,-359.73C386.68,-349.93 373.53,-339.94 362.18,-331.32"/>
<polygon fill="black" stroke="black" points="364.41,-328.62 354.33,-325.36 360.18,-334.19 364.41,-328.62"/>
</g>
<!-- HOME_blackbox_repository_autoencodix_vanillix_files -->
<g id="node27" class="node">
<title>HOME_blackbox_repository_autoencodix_vanillix_files</title>
<polygon fill="none" stroke="black" points="603.97,-252 268.37,-252 268.37,-216 603.97,-216 603.97,-252"/>
<text xml:space="preserve" text-anchor="middle" x="436.17" y="-229.8" font-family="Times,serif" font-size="14.00">HOME_blackbox_repository_autoencodix_vanillix_files</text>
</g>
<!-- syne_tune_syne_tune_blackbox_repository_conversion_scripts_scripts_ae_vanillix_import_py&#45;&gt;HOME_blackbox_repository_autoencodix_vanillix_files -->
<g id="edge39" class="edge">
<title>syne_tune_syne_tune_blackbox_repository_conversion_scripts_scripts_ae_vanillix_import_py-&gt;HOME_blackbox_repository_autoencodix_vanillix_files</title>
<path fill="none" stroke="black" d="M356.64,-287.52C369.9,-278.76 386.13,-268.04 400.47,-258.58"/>
<polygon fill="black" stroke="black" points="402.35,-261.53 408.77,-253.09 398.5,-255.68 402.35,-261.53"/>
</g>
<!-- (Using these blackboxes in Syne Tune) -->
<g id="node31" class="node">
<title>(Using these blackboxes in Syne Tune)</title>
<polygon fill="none" stroke="black" points="727.01,-180 491.33,-180 491.33,-144 727.01,-144 727.01,-180"/>
<text xml:space="preserve" text-anchor="middle" x="609.17" y="-157.8" font-family="Times,serif" font-size="14.00">(Using these blackboxes in Syne Tune)</text>
</g>
<!-- HOME_blackbox_repository_autoencodix_vanillix_files&#45;&gt;(Using these blackboxes in Syne Tune) -->
<g id="edge43" class="edge">
<title>HOME_blackbox_repository_autoencodix_vanillix_files-&gt;(Using these blackboxes in Syne Tune)</title>
<path fill="none" stroke="black" d="M479.38,-215.52C502.48,-206.17 531.13,-194.57 555.64,-184.66"/>
<polygon fill="black" stroke="black" points="556.85,-187.94 564.81,-180.95 554.23,-181.46 556.85,-187.94"/>
</g>
<!-- syne_tune_syne_tune_blackbox_repository_conversion_scripts_scripts_ae_varix_import_py -->
<g id="node29" class="node">
<title>syne_tune_syne_tune_blackbox_repository_conversion_scripts_scripts_ae_varix_import_py</title>
<polygon fill="none" stroke="black" points="1157.5,-324 622.83,-324 622.83,-288 1157.5,-288 1157.5,-324"/>
<text xml:space="preserve" text-anchor="middle" x="890.17" y="-301.8" font-family="Times,serif" font-size="14.00">syne_tune_syne_tune_blackbox_repository_conversion_scripts_scripts_ae_varix_import_py</text>
</g>
<!-- real_ae_results_varix_schc_METH_parquet
 &#160;&#160;&#160;real_ae_results_varix_schc_RNA_parquet
 &#160;&#160;&#160;real_ae_results_varix_tcga_DNA_parquet
 &#160;&#160;&#160;real_ae_results_varix_tcga_METH_parquet
 &#160;&#160;&#160;real_ae_results_varix_tcga_RNA_parquet&#45;&gt;syne_tune_syne_tune_blackbox_repository_conversion_scripts_scripts_ae_varix_import_py -->
<g id="edge41" class="edge">
<title>real_ae_results_varix_schc_METH_parquet
    real_ae_results_varix_schc_RNA_parquet
    real_ae_results_varix_tcga_DNA_parquet
    real_ae_results_varix_tcga_METH_parquet
    real_ae_results_varix_tcga_RNA_parquet-&gt;syne_tune_syne_tune_blackbox_repository_conversion_scripts_scripts_ae_varix_import_py</title>
<path fill="none" stroke="black" d="M855.2,-359.73C861.09,-350.84 867.09,-341.79 872.42,-333.75"/>
<polygon fill="black" stroke="black" points="875.31,-335.73 877.92,-325.47 869.48,-331.87 875.31,-335.73"/>
</g>
<!-- HOME_blackbox_repository_autoencodix_varix_files -->
<g id="node30" class="node">
<title>HOME_blackbox_repository_autoencodix_varix_files</title>
<polygon fill="none" stroke="black" points="996.97,-252 675.37,-252 675.37,-216 996.97,-216 996.97,-252"/>
<text xml:space="preserve" text-anchor="middle" x="836.17" y="-229.8" font-family="Times,serif" font-size="14.00">HOME_blackbox_repository_autoencodix_varix_files</text>
</g>
<!-- syne_tune_syne_tune_blackbox_repository_conversion_scripts_scripts_ae_varix_import_py&#45;&gt;HOME_blackbox_repository_autoencodix_varix_files -->
<g id="edge42" class="edge">
<title>syne_tune_syne_tune_blackbox_repository_conversion_scripts_scripts_ae_varix_import_py-&gt;HOME_blackbox_repository_autoencodix_varix_files</title>
<path fill="none" stroke="black" d="M876.82,-287.7C870.61,-279.64 863.09,-269.89 856.21,-260.98"/>
<polygon fill="black" stroke="black" points="859.17,-259.08 850.29,-253.3 853.63,-263.36 859.17,-259.08"/>
</g>
<!-- HOME_blackbox_repository_autoencodix_varix_files&#45;&gt;(Using these blackboxes in Syne Tune) -->
<g id="edge44" class="edge">
<title>HOME_blackbox_repository_autoencodix_varix_files-&gt;(Using these blackboxes in Syne Tune)</title>
<path fill="none" stroke="black" d="M779.47,-215.52C748.21,-205.88 709.19,-193.84 676.4,-183.73"/>
<polygon fill="black" stroke="black" points="677.57,-180.43 666.98,-180.83 675.51,-187.12 677.57,-180.43"/>
</g>
<!-- 01a_check_blackbox_properties.py -->
<g id="node32" class="node">
<title>01a_check_blackbox_properties.py</title>
<polygon fill="none" stroke="black" points="606.5,-108 391.84,-108 391.84,-72 606.5,-72 606.5,-108"/>
<text xml:space="preserve" text-anchor="middle" x="499.17" y="-85.8" font-family="Times,serif" font-size="14.00">01a_check_blackbox_properties.py</text>
</g>
<!-- (Using these blackboxes in Syne Tune)&#45;&gt;01a_check_blackbox_properties.py -->
<g id="edge45" class="edge">
<title>(Using these blackboxes in Syne Tune)-&gt;01a_check_blackbox_properties.py</title>
<path fill="none" stroke="black" d="M581.7,-143.52C567.81,-134.68 550.77,-123.84 535.79,-114.3"/>
<polygon fill="black" stroke="black" points="537.89,-111.49 527.57,-109.07 534.13,-117.39 537.89,-111.49"/>
</g>
<!-- Add XGBoost surrogate model -->
<g id="node33" class="node">
<title>Add XGBoost surrogate model</title>
<polygon fill="none" stroke="black" points="815.46,-108 624.87,-108 624.87,-72 815.46,-72 815.46,-108"/>
<text xml:space="preserve" text-anchor="middle" x="720.17" y="-85.8" font-family="Times,serif" font-size="14.00">Add XGBoost surrogate model</text>
</g>
<!-- (Using these blackboxes in Syne Tune)&#45;&gt;Add XGBoost surrogate model -->
<g id="edge46" class="edge">
<title>(Using these blackboxes in Syne Tune)-&gt;Add XGBoost surrogate model</title>
<path fill="none" stroke="black" d="M636.89,-143.52C650.9,-134.68 668.1,-123.84 683.22,-114.3"/>
<polygon fill="black" stroke="black" points="684.93,-117.36 691.52,-109.07 681.19,-111.44 684.93,-117.36"/>
</g>
<!-- 01a_check_surrogate.py -->
<g id="node34" class="node">
<title>01a_check_surrogate.py</title>
<polygon fill="none" stroke="black" points="596.39,-36 443.95,-36 443.95,0 596.39,0 596.39,-36"/>
<text xml:space="preserve" text-anchor="middle" x="520.17" y="-13.8" font-family="Times,serif" font-size="14.00">01a_check_surrogate.py</text>
</g>
<!-- Add XGBoost surrogate model&#45;&gt;01a_check_surrogate.py -->
<g id="edge47" class="edge">
<title>Add XGBoost surrogate model-&gt;01a_check_surrogate.py</title>
<path fill="none" stroke="black" d="M670.22,-71.52C643.03,-62 609.19,-50.16 580.54,-40.13"/>
<polygon fill="black" stroke="black" points="581.85,-36.88 571.26,-36.88 579.54,-43.49 581.85,-36.88"/>
</g>
<!-- 02_launch_ae_single_scheduler.py -->
<g id="node35" class="node">
<title>02_launch_ae_single_scheduler.py</title>
<polygon fill="none" stroke="black" points="826.33,-36 614.01,-36 614.01,0 826.33,0 826.33,-36"/>
<text xml:space="preserve" text-anchor="middle" x="720.17" y="-13.8" font-family="Times,serif" font-size="14.00">02_launch_ae_single_scheduler.py</text>
</g>
<!-- Add XGBoost surrogate model&#45;&gt;02_launch_ae_single_scheduler.py -->
<g id="edge48" class="edge">
<title>Add XGBoost surrogate model-&gt;02_launch_ae_single_scheduler.py</title>
<path fill="none" stroke="black" d="M720.17,-71.7C720.17,-64.41 720.17,-55.73 720.17,-47.54"/>
<polygon fill="black" stroke="black" points="723.67,-47.62 720.17,-37.62 716.67,-47.62 723.67,-47.62"/>
</g>
<!-- 03_launch_ae_transfer_learning.py -->
<g id="node36" class="node">
<title>03_launch_ae_transfer_learning.py</title>
<polygon fill="none" stroke="black" points="1058.1,-36 844.24,-36 844.24,0 1058.1,0 1058.1,-36"/>
<text xml:space="preserve" text-anchor="middle" x="951.17" y="-13.8" font-family="Times,serif" font-size="14.00">03_launch_ae_transfer_learning.py</text>
</g>
<!-- Add XGBoost surrogate model&#45;&gt;03_launch_ae_transfer_learning.py -->
<g id="edge49" class="edge">
<title>Add XGBoost surrogate model-&gt;03_launch_ae_transfer_learning.py</title>
<path fill="none" stroke="black" d="M777.86,-71.52C809.82,-61.83 849.73,-49.74 883.19,-39.6"/>
<polygon fill="black" stroke="black" points="883.81,-43.07 892.36,-36.82 881.78,-36.37 883.81,-43.07"/>
</g>
</g>
</svg>